<?xml version="1.0" encoding="utf-8"?>
<!-- Generator: Adobe Illustrator 21.0.2, SVG Export Plug-In . SVG Version: 6.00 Build 0)  -->
<svg version="1.1" id="Calque_1" xmlns="http://www.w3.org/2000/svg" xmlns:xlink="http://www.w3.org/1999/xlink" x="0px" y="0px"
	 viewBox="0 0 224.4 96.3" style="enable-background:new 0 0 224.4 96.3;" xml:space="preserve">
<style type="text/css">
	.st0{fill:#FFFFFF;}
</style>
<g>
	<g>
		<g>
			<path class="st0" d="M1.3,89.5v5.3H0.4v-6.2h1.3l1.9,5.2l1.9-5.2h1.3v6.2H6.1v-5.3l-2,5.3H3.3L1.3,89.5z"/>
			<path class="st0" d="M12.5,94.7c-0.1,0.1-0.3,0.2-0.5,0.2c-0.6,0-0.9-0.3-0.9-0.9c-0.3,0.6-0.7,0.9-1.5,0.9
				c-0.8,0-1.3-0.4-1.3-1.1c0-0.9,0.8-1.3,2-1.3c0.2,0,0.5,0,0.8,0V92c0-0.6-0.2-1-0.9-1c-0.6,0-1,0.2-1,0.6c0,0.1,0,0.2,0.1,0.4
				l-0.8,0.3c-0.1-0.2-0.1-0.4-0.1-0.6c0-0.8,0.7-1.3,1.8-1.3c1.3,0,1.8,0.7,1.8,1.8v1.6c0,0.3,0.1,0.5,0.4,0.5c0.1,0,0.2,0,0.2,0
				V94.7z M11,93c-1.5,0.1-1.8,0.3-1.8,0.8c0,0.3,0.2,0.5,0.6,0.5C10.5,94.3,11,93.8,11,93L11,93z"/>
			<path class="st0" d="M16.5,91.4c0,0.3-0.1,0.6-0.2,0.9l-0.8,0c0.1-0.2,0.2-0.5,0.2-0.8c0-0.3-0.1-0.5-0.4-0.5
				c-0.7,0-0.9,1.5-0.9,2.7v1h-0.9v-4.3H14l0.2,1.7c0.1-1.2,0.5-1.8,1.3-1.8C16.2,90.4,16.5,90.8,16.5,91.4z"/>
			<path class="st0" d="M18.7,90.4c0.8,0,1.3,0.5,1.4,1.1v-2.8h0.9v6.2h-0.5l-0.2-1.2c-0.1,0.5-0.6,1.3-1.5,1.3
				c-1.2,0-1.8-1-1.8-2.2C17,91.4,17.6,90.4,18.7,90.4z M19,94.2c0.6,0,1.2-0.6,1.2-1.5c0-0.9-0.5-1.5-1.1-1.5
				c-0.7,0-1.1,0.6-1.1,1.5C17.9,93.5,18.3,94.2,19,94.2z"/>
			<path class="st0" d="M22.5,89.8v-1.2h0.9v1.2H22.5z M22.5,94.8v-4.3h0.9v4.3H22.5z"/>
			<path class="st0" d="M25.4,96.3h-0.7l2.8-8.2h0.7L25.4,96.3z"/>
			<path class="st0" d="M32.2,94.8h-0.9L29,88.6H30l1.8,5l1.8-5h0.9L32.2,94.8z"/>
			<path class="st0" d="M38.5,93.6c-0.1,0.9-0.8,1.3-1.7,1.3c-1.3,0-2.1-0.8-2.1-2.2c0-1.4,0.8-2.2,2-2.2c1.1,0,1.7,0.6,1.7,1.8
				c0,0.2,0,0.5-0.1,0.7h-2.7c0,0.8,0.5,1.4,1.2,1.4c0.6,0,0.8-0.3,0.9-0.9L38.5,93.6z M37.6,92c0-0.6-0.3-1-0.9-1
				c-0.7,0-1,0.6-1.1,1.2h1.9C37.6,92.2,37.6,92.1,37.6,92z"/>
			<path class="st0" d="M42.6,94.8v-2.6c0-0.7-0.3-1-0.8-1c-0.8,0-1.2,1-1.2,2.3v1.3h-0.9v-4.3h0.5l0.2,1.6c0.1-0.9,0.7-1.7,1.6-1.7
				c1,0,1.5,0.7,1.5,1.7v2.7H42.6z"/>
			<path class="st0" d="M46.2,90.4c0.8,0,1.3,0.5,1.4,1.1v-2.8h0.9v6.2H48l-0.2-1.2c-0.1,0.5-0.6,1.3-1.5,1.3c-1.2,0-1.8-1-1.8-2.2
				C44.5,91.4,45.1,90.4,46.2,90.4z M46.5,94.2c0.6,0,1.2-0.6,1.2-1.5c0-0.9-0.5-1.5-1.1-1.5c-0.7,0-1.1,0.6-1.1,1.5
				C45.4,93.5,45.8,94.2,46.5,94.2z"/>
			<path class="st0" d="M53.1,91.4c0,0.3-0.1,0.6-0.2,0.9l-0.8,0c0.1-0.2,0.2-0.5,0.2-0.8c0-0.3-0.1-0.5-0.4-0.5
				c-0.7,0-0.9,1.5-0.9,2.7v1H50v-4.3h0.5l0.2,1.7c0.1-1.2,0.5-1.8,1.3-1.8C52.7,90.4,53.1,90.8,53.1,91.4z"/>
			<path class="st0" d="M57.4,93.6c-0.1,0.9-0.8,1.3-1.7,1.3c-1.3,0-2.1-0.8-2.1-2.2c0-1.4,0.8-2.2,2-2.2c1.1,0,1.7,0.6,1.7,1.8
				c0,0.2,0,0.5-0.1,0.7h-2.7c0,0.8,0.5,1.4,1.2,1.4c0.6,0,0.8-0.3,0.9-0.9L57.4,93.6z M56.5,92c0-0.6-0.3-1-0.9-1
				c-0.7,0-1,0.6-1.1,1.2h1.9C56.5,92.2,56.5,92.1,56.5,92z"/>
			<path class="st0" d="M59.9,90.4c0.8,0,1.3,0.5,1.4,1.1v-2.8h0.9v6.2h-0.5l-0.2-1.2c-0.1,0.5-0.6,1.3-1.5,1.3
				c-1.2,0-1.8-1-1.8-2.2C58.2,91.4,58.8,90.4,59.9,90.4z M60.1,94.2c0.6,0,1.2-0.6,1.2-1.5c0-0.9-0.5-1.5-1.1-1.5
				c-0.7,0-1.1,0.6-1.1,1.5C59,93.5,59.5,94.2,60.1,94.2z"/>
			<path class="st0" d="M63.7,89.8v-1.2h0.9v1.2H63.7z M63.7,94.8v-4.3h0.9v4.3H63.7z"/>
			<path class="st0" d="M68.8,94.8V90h-1.4v-0.6h0.2c0.6,0,1.1-0.2,1.5-0.6h0.5v6H68.8z"/>
			<path class="st0" d="M74.6,93.4v1.4h-0.9v-1.4h-2.8v-0.6l2.8-3.9h0.9v3.9h0.9v0.7H74.6z M73.7,89.9l-2,2.8h2V89.9z"/>
			<path class="st0" d="M79.4,94.8v-2.6c0-0.7-0.3-1-0.8-1c-0.8,0-1.2,0.9-1.2,2.2v1.4h-0.9v-6.2h0.9v3.1c0.1-0.8,0.7-1.3,1.4-1.3
				c1,0,1.5,0.7,1.5,1.7v2.7H79.4z"/>
			<path class="st0" d="M87.8,94.7c-0.1,0.1-0.3,0.2-0.5,0.2c-0.6,0-0.9-0.3-0.9-0.9c-0.3,0.6-0.7,0.9-1.5,0.9
				c-0.8,0-1.3-0.4-1.3-1.1c0-0.9,0.8-1.3,2-1.3c0.2,0,0.5,0,0.8,0V92c0-0.6-0.2-1-0.9-1c-0.6,0-1,0.2-1,0.6c0,0.1,0,0.2,0.1,0.4
				l-0.8,0.3c-0.1-0.2-0.1-0.4-0.1-0.6c0-0.8,0.7-1.3,1.8-1.3c1.3,0,1.8,0.7,1.8,1.8v1.6c0,0.3,0.1,0.5,0.4,0.5c0.1,0,0.2,0,0.2,0
				V94.7z M84.3,88.6h0.9l0.5,1.3h-0.5L84.3,88.6z M86.3,93c-1.5,0.1-1.8,0.3-1.8,0.8c0,0.3,0.2,0.5,0.6,0.5
				C85.8,94.3,86.3,93.8,86.3,93L86.3,93z"/>
			<path class="st0" d="M91.6,94.8V90h-1.4v-0.6h0.2c0.6,0,1.1-0.2,1.5-0.6h0.5v6H91.6z"/>
			<path class="st0" d="M94.8,93.2c0,0.1,0,0.1,0,0.1c0,0.5,0.4,0.9,0.9,0.9c0.9,0,1.3-1.1,1.3-2.6c-0.2,0.6-0.7,1.1-1.4,1.1
				c-1.1,0-1.7-0.9-1.7-1.9c0-0.9,0.6-2,1.9-2c1.5,0,2.1,1.3,2.1,2.9c0,1.6-0.5,3.3-2.1,3.3c-1.1,0-1.7-0.7-1.7-1.5L94.8,93.2z
				 M95.8,92c0.6,0,1.1-0.6,1.1-1.3c0-0.7-0.4-1.2-1-1.2c-0.8,0-1.1,0.6-1.1,1.3C94.7,91.3,95,92,95.8,92z"/>
			<path class="st0" d="M102.1,94.8v-2.6c0-0.7-0.3-1-0.8-1c-0.8,0-1.2,0.9-1.2,2.2v1.4h-0.9v-6.2h0.9v3.1c0.1-0.8,0.7-1.3,1.4-1.3
				c1,0,1.5,0.7,1.5,1.7v2.7H102.1z"/>
			<path class="st0" d="M106.3,92.7V92h5.5v0.7H106.3z"/>
			<path class="st0" d="M119.4,90.1c-0.4-0.4-1.2-0.9-2-0.9c-0.8,0-1.3,0.3-1.3,1c0,0.6,0.4,0.9,1.6,1.1c1.6,0.3,2.2,0.7,2.2,1.8
				c0,1-0.7,1.8-2.2,1.8c-1.1,0-2.1-0.4-2.7-1.3l0.6-0.6c0.5,0.7,1.3,1.2,2.2,1.2c0.8,0,1.2-0.4,1.2-1c0-0.6-0.4-0.8-1.2-1
				c-1.6-0.3-2.6-0.8-2.6-2.1c0-0.9,0.8-1.7,2.3-1.7c0.9,0,1.7,0.4,2.4,1L119.4,90.1z"/>
			<path class="st0" d="M125.3,94.7c-0.1,0.1-0.3,0.2-0.5,0.2c-0.6,0-0.9-0.3-0.9-0.9c-0.3,0.6-0.7,0.9-1.5,0.9
				c-0.8,0-1.3-0.4-1.3-1.1c0-0.9,0.8-1.3,2-1.3c0.2,0,0.5,0,0.8,0V92c0-0.6-0.2-1-0.9-1c-0.6,0-1,0.2-1,0.6c0,0.1,0,0.2,0.1,0.4
				l-0.8,0.3c-0.1-0.2-0.1-0.4-0.1-0.6c0-0.8,0.7-1.3,1.8-1.3c1.3,0,1.8,0.7,1.8,1.8v1.6c0,0.3,0.1,0.5,0.4,0.5c0.1,0,0.2,0,0.2,0
				V94.7z M123.7,93c-1.5,0.1-1.8,0.3-1.8,0.8c0,0.3,0.2,0.5,0.6,0.5C123.2,94.3,123.7,93.8,123.7,93L123.7,93z"/>
			<path class="st0" d="M129.2,94.8v-2.6c0-0.7-0.3-1-0.8-1c-0.8,0-1.2,1-1.2,2.3v1.3h-0.9v-4.3h0.5l0.2,1.6
				c0.1-0.9,0.7-1.7,1.6-1.7c1,0,1.4,0.6,1.5,1.6c0.1-0.9,0.6-1.6,1.5-1.6c1,0,1.5,0.7,1.5,1.7v2.7h-0.9v-2.6c0-0.7-0.3-1-0.8-1
				c-0.8,0-1.2,0.9-1.2,2.3v1.3H129.2z"/>
			<path class="st0" d="M137.9,93.6c-0.1,0.9-0.8,1.3-1.7,1.3c-1.3,0-2.1-0.8-2.1-2.2c0-1.4,0.8-2.2,2-2.2c1.1,0,1.7,0.6,1.7,1.8
				c0,0.2,0,0.5-0.1,0.7H135c0,0.8,0.5,1.4,1.2,1.4c0.6,0,0.8-0.3,0.9-0.9L137.9,93.6z M137,92c0-0.6-0.3-1-0.9-1
				c-0.7,0-1,0.6-1.1,1.2h1.9C137,92.2,137,92.1,137,92z"/>
			<path class="st0" d="M140.3,90.4c0.8,0,1.3,0.5,1.4,1.1v-2.8h0.9v6.2h-0.5l-0.2-1.2c-0.1,0.5-0.6,1.3-1.5,1.3
				c-1.2,0-1.8-1-1.8-2.2C138.6,91.4,139.2,90.4,140.3,90.4z M140.6,94.2c0.6,0,1.2-0.6,1.2-1.5c0-0.9-0.5-1.5-1.1-1.5
				c-0.7,0-1.1,0.6-1.1,1.5C139.5,93.5,139.9,94.2,140.6,94.2z"/>
			<path class="st0" d="M144.1,89.8v-1.2h0.9v1.2H144.1z M144.1,94.8v-4.3h0.9v4.3H144.1z"/>
			<path class="st0" d="M149.8,90.4c0.8,0,1.3,0.5,1.4,1.1v-2.8h0.9v6.2h-0.5l-0.2-1.2c-0.1,0.5-0.6,1.3-1.5,1.3
				c-1.2,0-1.8-1-1.8-2.2C148.1,91.4,148.7,90.4,149.8,90.4z M150.1,94.2c0.6,0,1.2-0.6,1.2-1.5c0-0.9-0.5-1.5-1.1-1.5
				c-0.7,0-1.1,0.6-1.1,1.5C149,93.5,149.4,94.2,150.1,94.2z"/>
			<path class="st0" d="M157.1,93.6c-0.1,0.9-0.8,1.3-1.7,1.3c-1.3,0-2.1-0.8-2.1-2.2c0-1.4,0.8-2.2,2-2.2c1.1,0,1.7,0.6,1.7,1.8
				c0,0.2,0,0.5-0.1,0.7h-2.7c0,0.8,0.5,1.4,1.2,1.4c0.6,0,0.8-0.3,0.9-0.9L157.1,93.6z M156.2,92c0-0.6-0.3-1-0.9-1
				c-0.7,0-1,0.6-1.1,1.2h1.9C156.2,92.2,156.2,92.1,156.2,92z"/>
			<path class="st0" d="M161,94.8V90h-1.4v-0.6h0.2c0.6,0,1.1-0.2,1.5-0.6h0.5v6H161z"/>
			<path class="st0" d="M165.4,94.9c-1.5,0-2.1-1.6-2.1-3.1c0-1.5,0.6-3.1,2.1-3.1s2.1,1.6,2.1,3.1
				C167.5,93.3,166.9,94.9,165.4,94.9z M165.4,89.4c-0.9,0-1.2,1.1-1.2,2.4c0,1.2,0.3,2.4,1.2,2.4s1.2-1.1,1.2-2.4
				C166.6,90.6,166.3,89.4,165.4,89.4z"/>
			<path class="st0" d="M169,96.3h-0.7l2.8-8.2h0.7L169,96.3z"/>
			<path class="st0" d="M174.1,94.8V90h-1.4v-0.6h0.2c0.6,0,1.1-0.2,1.5-0.6h0.5v6H174.1z"/>
			<path class="st0" d="M176.6,90.5c0-0.1-0.1-0.3-0.1-0.4c0-0.8,0.7-1.3,1.8-1.3c1.1,0,1.9,0.5,1.9,1.4c0,0.6-0.3,1.2-1.3,1.4
				c1,0.1,1.5,0.7,1.5,1.5c0,0.8-0.5,1.8-2.1,1.8c-1.3,0-1.9-0.7-1.9-1.6c0-0.1,0-0.3,0.1-0.5l0.9-0.1c-0.1,0.2-0.1,0.4-0.1,0.5
				c0,0.5,0.4,0.9,1.1,0.9c0.8,0,1.2-0.6,1.2-1.1c0-0.8-0.5-1.1-1.4-1.1h-0.3v-0.7h0.2c0.9,0,1.3-0.4,1.3-1c0-0.6-0.4-0.9-1-0.9
				c-0.6,0-0.9,0.3-0.9,0.7c0,0.1,0,0.3,0.1,0.5L176.6,90.5z"/>
			<path class="st0" d="M184.6,94.8v-2.6c0-0.7-0.3-1-0.8-1c-0.8,0-1.2,0.9-1.2,2.2v1.4h-0.9v-6.2h0.9v3.1c0.1-0.8,0.7-1.3,1.4-1.3
				c1,0,1.5,0.7,1.5,1.7v2.7H184.6z"/>
			<path class="st0" d="M192.3,93.6c-0.1,0.9-0.8,1.3-1.7,1.3c-1.3,0-2.1-0.8-2.1-2.2c0-1.4,0.8-2.2,2-2.2c1.1,0,1.7,0.6,1.7,1.8
				c0,0.2,0,0.5-0.1,0.7h-2.7c0,0.8,0.5,1.4,1.2,1.4c0.6,0,0.8-0.3,0.9-0.9L192.3,93.6z M191.4,92c0-0.6-0.3-1-0.9-1
				c-0.7,0-1,0.6-1.1,1.2h1.9C191.4,92.2,191.4,92.1,191.4,92z"/>
			<path class="st0" d="M195.6,94.7c-0.2,0.1-0.6,0.2-0.9,0.2c-0.8,0-1.2-0.5-1.2-1.3v-2.6h-0.7v-0.6h0.7v-1.2l0.9-0.1v1.3h1.1v0.6
				h-1.1v2.6c0,0.3,0.1,0.6,0.5,0.6c0.2,0,0.5,0,0.7-0.1L195.6,94.7z"/>
			<path class="st0" d="M199.4,94.8V90H198v-0.6h0.2c0.6,0,1.1-0.2,1.5-0.6h0.5v6H199.4z"/>
			<path class="st0" d="M205.2,93.4v1.4h-0.9v-1.4h-2.8v-0.6l2.8-3.9h0.9v3.9h0.9v0.7H205.2z M204.3,89.9l-2,2.8h2V89.9z"/>
			<path class="st0" d="M207.5,96.3h-0.7l2.8-8.2h0.7L207.5,96.3z"/>
			<path class="st0" d="M212.6,94.8V90h-1.4v-0.6h0.2c0.6,0,1.1-0.2,1.5-0.6h0.5v6H212.6z"/>
			<path class="st0" d="M215.9,93.2c0,0.1,0,0.1,0,0.1c0,0.5,0.4,0.9,0.9,0.9c0.9,0,1.3-1.1,1.3-2.6c-0.2,0.6-0.7,1.1-1.4,1.1
				c-1.1,0-1.7-0.9-1.7-1.9c0-0.9,0.6-2,1.9-2c1.5,0,2.1,1.3,2.1,2.9c0,1.6-0.5,3.3-2.1,3.3c-1.1,0-1.7-0.7-1.7-1.5L215.9,93.2z
				 M216.8,92c0.6,0,1.1-0.6,1.1-1.3c0-0.7-0.4-1.2-1-1.2c-0.8,0-1.1,0.6-1.1,1.3C215.8,91.3,216.1,92,216.8,92z"/>
			<path class="st0" d="M223.1,94.8v-2.6c0-0.7-0.3-1-0.8-1c-0.8,0-1.2,0.9-1.2,2.2v1.4h-0.9v-6.2h0.9v3.1c0.1-0.8,0.7-1.3,1.4-1.3
				c1,0,1.5,0.7,1.5,1.7v2.7H223.1z"/>
		</g>
	</g>
	<g>
		<g>
			<path class="st0" d="M3.6,82.8c-1.7,0-2.5-1-2.5-3.2c0-0.6,0.1-1.3,0.2-1.7L3,77.8c-0.1,0.3-0.1,0.9-0.1,1.3
				c0,1.4,0.1,2.1,0.8,2.1c0.6,0,1-0.5,1-4.1c0-2.4-0.3-2.8-0.8-2.8c-0.5,0-0.8,0.6-0.9,2l-1.7-0.1L2,68.7h4.2c0,0.3,0,0.5,0,0.8
				c0,0.3,0,0.6-0.1,0.9H3.4l-0.3,2.8c0.4-0.6,0.7-0.7,1.3-0.7c1.4,0,2.2,1.1,2.2,4.5C6.5,81.5,5.3,82.8,3.6,82.8z"/>
			<path class="st0" d="M12.2,79.6v3h-1.7v-3H7.3V77l2.9-8.3h2v9.2h1v1.7H12.2z M8.6,77.9h1.9l0-5.9L8.6,77.9z"/>
			<path class="st0" d="M21.2,82.6c-0.2-0.5-0.4-1.5-0.4-2.5v-2.2c0-1.3-0.3-1.8-0.8-1.8h-0.6v6.6h-1.9V68.7h2.9
				c1.4,0,2.5,0.8,2.5,3.5c0,2.2-0.4,3-1.7,3.2c1.3,0.2,1.4,1.6,1.4,3.6c0,1.3,0.2,3,0.6,3.5H21.2z M20.1,70h-0.7v4.7h1
				c0.5,0,0.7-0.4,0.7-1.9C21,70.7,20.7,70,20.1,70z"/>
			<path class="st0" d="M26.7,82.9c-1.8,0-2.8-1-2.8-2.5V68.7h1.9v11.5c0,0.8,0.3,1.1,0.9,1.1c0.7,0,0.9-0.4,0.9-1.1V68.7h1.9v11.6
				C29.5,81.9,28.8,82.9,26.7,82.9z"/>
			<path class="st0" d="M30.8,82.6V68.7H35v1.5h-2.4v4.6h2.1v1.5h-2.1v4.8h2.7v1.5H30.8z"/>
			<path class="st0" d="M42.7,82.6h-3V68.7h2.6c0.8,0,1.7,0.3,2.2,1.2c0.5,1,0.8,3,0.8,6.4C45.3,81.3,44.8,82.6,42.7,82.6z
				 M42.2,70.1h-0.6v11h0.6c0.9,0,1.1-0.3,1.1-4.5C43.3,71.4,43,70.1,42.2,70.1z"/>
			<path class="st0" d="M49.1,82.9c-1.8,0-2.8-1-2.8-2.5V68.7h1.9v11.5c0,0.8,0.3,1.1,0.9,1.1c0.7,0,0.9-0.4,0.9-1.1V68.7h1.9v11.6
				C51.9,81.9,51.2,82.9,49.1,82.9z"/>
			<path class="st0" d="M59.2,82.9c-1.7,0-2.7-0.8-2.7-6.4c0-6.2,0.6-7.9,2.8-7.9c1.8,0,2.4,1.3,2.4,3.5c0,0.5-0.1,1.6-0.2,2.2
				l-1.6,0c0.1-0.7,0.1-1.6,0.1-2c0-1.6-0.1-2.2-0.8-2.2c-0.6,0-0.8,0.5-0.8,5.8c0,5.1,0.3,5.6,1,5.6c0.5,0,0.7-0.7,0.7-2.8
				c0-0.6,0-1.4-0.1-2.2l1.6,0c0.1,0.8,0.1,1.4,0.1,2.2C61.7,81.4,61,82.9,59.2,82.9z"/>
			<path class="st0" d="M65.2,82.9c-2.1,0-2.7-1.1-2.7-7.2c0-6.1,0.7-7.1,2.7-7.1s2.8,1.1,2.8,7.1C68,81.7,67.3,82.9,65.2,82.9z
				 M66,71.2c-0.1-1-0.2-1.3-0.7-1.3c-0.5,0-0.7,0.3-0.7,1.3c-0.1,1-0.1,2.3-0.1,4.5c0,2.5,0,3.5,0.1,4.5c0.1,1,0.3,1.3,0.7,1.3
				c0.5,0,0.7-0.3,0.7-1.3c0.1-1,0.1-1.9,0.1-4.5C66.1,73.5,66.1,72.2,66,71.2z"/>
			<path class="st0" d="M71.8,82.9c-1.8,0-2.8-1-2.8-2.5V68.7h1.9v11.5c0,0.8,0.3,1.1,0.9,1.1c0.7,0,0.9-0.4,0.9-1.1V68.7h1.9v11.6
				C74.6,81.9,73.9,82.9,71.8,82.9z"/>
			<path class="st0" d="M75.8,82.6V68.7h4.3v1.5h-2.4v4.6h2.1v1.5h-2.1v4.8h2.7v1.5H75.8z"/>
			<path class="st0" d="M84.3,82.6h-3V68.7h2.6c0.8,0,1.7,0.3,2.2,1.2c0.5,1,0.8,3,0.8,6.4C86.9,81.3,86.4,82.6,84.3,82.6z
				 M83.8,70.1h-0.6v11h0.6c0.9,0,1.1-0.3,1.1-4.5C84.9,71.4,84.6,70.1,83.8,70.1z"/>
			<path class="st0" d="M87.9,82.6V68.7h1.9v13.8H87.9z"/>
			<path class="st0" d="M93.6,82.9c-1.7,0-2.7-0.8-2.7-6.4c0-6.2,0.6-7.9,2.8-7.9c1.8,0,2.4,1.3,2.4,3.5c0,0.5-0.1,1.6-0.2,2.2
				l-1.6,0c0.1-0.7,0.1-1.6,0.1-2c0-1.6-0.1-2.2-0.8-2.2c-0.6,0-0.8,0.5-0.8,5.8c0,5.1,0.3,5.6,1,5.6c0.5,0,0.7-0.7,0.7-2.8
				c0-0.6,0-1.4-0.1-2.2l1.6,0c0.1,0.8,0.1,1.4,0.1,2.2C96.1,81.4,95.4,82.9,93.6,82.9z"/>
			<path class="st0" d="M100.5,77.5v-1.4h10.9v1.4H100.5z"/>
			<path class="st0" d="M121.2,82.6v-2.2c0-3.1,0.1-7.9,0.1-7.9s-0.4,3.9-0.6,6.4c-0.1,1.4-0.4,3.7-0.4,3.7h-1.4
				c0,0-0.3-2.3-0.4-3.7c-0.3-2.5-0.7-6.4-0.7-6.4s0.1,4.8,0.1,7.9v2.2h-1.6V68.7h2.3c0.2,1,0.6,3.1,0.8,5.1
				c0.1,1.3,0.3,3.2,0.3,3.2s0.2-1.8,0.3-3.2c0.2-2,0.5-4.2,0.7-5.1h2.3v13.8H121.2z"/>
			<path class="st0" d="M125.7,72.2c-1,0-1.7-0.8-1.7-1.7s0.8-1.7,1.7-1.7c1,0,1.8,0.8,1.8,1.7S126.6,72.2,125.7,72.2z M125.7,69.5
				c-0.5,0-1,0.5-1,1s0.5,1,1,1c0.6,0,1.1-0.4,1.1-1S126.2,69.5,125.7,69.5z"/>
			<path class="st0" d="M137.1,82.6v-2.2c0-3.1,0.1-7.9,0.1-7.9s-0.4,3.9-0.6,6.4c-0.1,1.4-0.4,3.7-0.4,3.7h-1.4
				c0,0-0.3-2.3-0.4-3.7c-0.3-2.5-0.7-6.4-0.7-6.4s0.1,4.8,0.1,7.9v2.2h-1.6V68.7h2.3c0.2,1,0.6,3.1,0.8,5.1
				c0.1,1.3,0.3,3.2,0.3,3.2s0.2-1.8,0.3-3.2c0.2-2,0.5-4.2,0.7-5.1h2.3v13.8H137.1z"/>
			<path class="st0" d="M142.6,82.9c-2.1,0-2.7-1.1-2.7-7.2c0-6.1,0.7-7.1,2.7-7.1s2.8,1.1,2.8,7.1
				C145.3,81.7,144.6,82.9,142.6,82.9z M143.3,71.2c-0.1-1-0.2-1.3-0.7-1.3c-0.5,0-0.7,0.3-0.7,1.3c-0.1,1-0.1,2.3-0.1,4.5
				c0,2.5,0,3.5,0.1,4.5c0.1,1,0.3,1.3,0.7,1.3c0.5,0,0.7-0.3,0.7-1.3c0.1-1,0.1-1.9,0.1-4.5C143.4,73.5,143.4,72.2,143.3,71.2z"/>
			<path class="st0" d="M149.1,82.9c-1.8,0-2.8-1-2.8-2.5V68.7h1.9v11.5c0,0.8,0.3,1.1,0.9,1.1c0.7,0,0.9-0.4,0.9-1.1V68.7h1.9v11.6
				C151.9,81.9,151.2,82.9,149.1,82.9z"/>
			<path class="st0" d="M156.5,70.3v12.3h-1.9V70.3h-1.9v-1.5h5.7v1.5H156.5z"/>
			<path class="st0" d="M161.7,82.9c-2.1,0-2.7-1.1-2.7-7.2c0-6.1,0.7-7.1,2.7-7.1s2.8,1.1,2.8,7.1
				C164.4,81.7,163.7,82.9,161.7,82.9z M162.4,71.2c-0.1-1-0.2-1.3-0.7-1.3c-0.5,0-0.7,0.3-0.7,1.3c-0.1,1-0.1,2.3-0.1,4.5
				c0,2.5,0,3.5,0.1,4.5c0.1,1,0.3,1.3,0.7,1.3c0.5,0,0.7-0.3,0.7-1.3c0.1-1,0.1-1.9,0.1-4.5C162.5,73.5,162.5,72.2,162.4,71.2z"/>
			<path class="st0" d="M169,82.6c0,0-0.4-1.4-0.6-2.2c-0.6-2.4-1.4-6.2-1.5-6.4c0,0,0.1,3.6,0.1,5.9v2.7h-1.6V68.7h1.7
				c0,0,0.4,1.4,0.6,2.2c0.5,2.4,1.3,6.2,1.3,6.4c0-0.1-0.1-3.6-0.1-5.9v-2.7h1.6v13.8H169z"/>
			<path class="st0" d="M178.4,82.6h-3V68.7h2.6c0.8,0,1.7,0.3,2.2,1.2c0.5,1,0.8,3,0.8,6.4C180.9,81.3,180.4,82.6,178.4,82.6z
				 M177.8,70.1h-0.6v11h0.6c0.9,0,1.1-0.3,1.1-4.5C178.9,71.4,178.7,70.1,177.8,70.1z"/>
			<path class="st0" d="M184.8,82.9c-1.8,0-2.8-1-2.8-2.5V68.7h1.9v11.5c0,0.8,0.3,1.1,0.9,1.1c0.7,0,0.9-0.4,0.9-1.1V68.7h1.9v11.6
				C187.6,81.9,186.8,82.9,184.8,82.9z"/>
			<path class="st0" d="M192.2,82.7h-1.7l-2-13.9h1.8c0.2,1.4,0.6,4,0.9,6.5c0.2,1.3,0.3,3.3,0.3,3.3s0.2-2,0.3-3.3
				c0.3-2.5,0.6-5.1,0.7-6.5h1.7L192.2,82.7z"/>
			<path class="st0" d="M195.1,82.6V68.7h4.3v1.5H197v4.6h2.1v1.5H197v4.8h2.7v1.5H195.1z"/>
			<path class="st0" d="M204.2,82.6c-0.2-0.5-0.4-1.5-0.4-2.5v-2.2c0-1.3-0.3-1.8-0.8-1.8h-0.6v6.6h-1.9V68.7h2.9
				c1.4,0,2.5,0.8,2.5,3.5c0,2.2-0.4,3-1.7,3.2c1.3,0.2,1.4,1.6,1.4,3.6c0,1.3,0.2,3,0.6,3.5H204.2z M203.1,70h-0.7v4.7h1
				c0.5,0,0.7-0.4,0.7-1.9C204.1,70.7,203.8,70,203.1,70z"/>
			<path class="st0" d="M210.7,82.6c0,0-0.4-1.4-0.6-2.2c-0.6-2.4-1.4-6.2-1.5-6.4c0,0,0.1,3.6,0.1,5.9v2.7h-1.6V68.7h1.7
				c0,0,0.4,1.4,0.6,2.2c0.5,2.4,1.3,6.2,1.3,6.4c0-0.1-0.1-3.6-0.1-5.9v-2.7h1.6v13.8H210.7z"/>
			<path class="st0" d="M213.4,82.6V68.7h4.3v1.5h-2.4v4.6h2.1v1.5h-2.1v4.8h2.7v1.5H213.4z"/>
			<path class="st0" d="M222.2,70.3v12.3h-1.9V70.3h-1.9v-1.5h5.7v1.5H222.2z"/>
		</g>
	</g>
	<g>
		<g>
			<path class="st0" d="M10.2,43.7v7.1h-4v-7.1H0v-3.4h6.2v-7.1h4v7.1h6.2v3.4H10.2z"/>
			<path class="st0" d="M23.3,57.8c-4,0-6-2.8-6-7.5c0-2.1,0.1-3.4,0.4-4.7l4.1-0.2c-0.1,0.7-0.3,2.3-0.3,3.6c0,4.1,0.5,5.4,2,5.4
				c1.6,0,2.3-1,2.3-7c0-3.1-0.8-5.9-2.5-5.9h-3.4v-3.5h3.4c1.5,0,2-1.7,2-5c0-3.8-0.6-5.5-2-5.5c-1.6,0-1.8,2.3-1.8,3.9
				c0,1.1,0.1,2.6,0.2,3.3l-3.9-0.2c-0.1-0.6-0.3-1.4-0.3-3c0-4.2,2.1-7.2,6-7.2c4.3,0,6.2,2.6,6.2,9.2c0,3.6-0.9,5.6-3.1,5.9
				c2.3,0.2,3.9,3.2,3.9,8.6C30.3,55.6,27.6,57.8,23.3,57.8z"/>
			<path class="st0" d="M37.7,57.8c-4,0-6-2.8-6-7.5c0-2.1,0.1-3.4,0.4-4.7l4.1-0.2c-0.1,0.7-0.3,2.3-0.3,3.6c0,4.1,0.5,5.4,2,5.4
				c1.6,0,2.3-1,2.3-7c0-3.1-0.8-5.9-2.5-5.9h-3.4v-3.5h3.4c1.5,0,2-1.7,2-5c0-3.8-0.6-5.5-2-5.5c-1.6,0-1.8,2.3-1.8,3.9
				c0,1.1,0.1,2.6,0.2,3.3l-3.9-0.2c-0.1-0.6-0.3-1.4-0.3-3c0-4.2,2.1-7.2,6-7.2c4.3,0,6.2,2.6,6.2,9.2c0,3.6-0.9,5.6-3.1,5.9
				c2.3,0.2,3.9,3.2,3.9,8.6C44.7,55.6,42,57.8,37.7,57.8z"/>
			<path class="st0" d="M61.9,63.9C57.1,59,55,52.6,55,43.4c0-8.9,3-16.1,6.6-19.9l0.7,0.6c-2.4,6.7-3.3,11.5-3.3,19.3
				c0,8,0.3,11.5,3.4,19.9L61.9,63.9z"/>
			<path class="st0" d="M69.1,57.8c-4.6,0-6.2-2.2-6.2-16c0-14.4,1.5-17.3,6.2-17.3s6.2,2.7,6.2,17.3C75.3,55.6,73.6,57.8,69.1,57.8
				z M70.7,30.4c-0.3-2.4-0.6-3.1-1.6-3.1s-1.3,0.7-1.5,3.1c-0.1,2.3-0.2,5.6-0.2,10.7c0,6,0,8.2,0.2,10.5c0.2,2.4,0.6,3.1,1.5,3.1
				c1,0,1.3-0.7,1.6-3.1c0-0.4,0.1-4.9,0.1-10.5C70.8,37,70.8,31.3,70.7,30.4z"/>
			<path class="st0" d="M76.4,63.9l-0.6-0.5c3.1-8.4,3.4-11.9,3.4-19.9c0-7.8-0.9-12.6-3.3-19.3l0.7-0.6c3.6,3.8,6.6,11,6.6,19.9
				C83.2,52.6,81.1,59,76.4,63.9z"/>
			<path class="st0" d="M91.2,57.8c-3.6,0-5.3-1.9-5.3-6.2c0-1.2,0.2-2.1,0.5-3.1l3.7-0.2c-0.1,0.4-0.3,1.3-0.3,2.6
				c0,2.7,0.4,3.4,1.7,3.4c1.3,0,2-1.2,2-8c0-1,0-1.7-0.1-2.4c-0.8,1.6-1.8,2-3.2,2c-3.2,0-5.2-3.2-5.2-10.2
				c0-8.5,2.4-11.3,6.5-11.3c5,0,6.5,4.9,6.5,16.9C97.9,55.2,95.5,57.8,91.2,57.8z M91.4,28.1c-1.6,0-1.8,1.2-1.8,7.3
				c0,6,0.6,7.3,1.9,7.3c1.5,0,1.9-1.7,1.9-7.3C93.3,29.5,92.7,28.1,91.4,28.1z"/>
			<path class="st0" d="M105.4,57.8c-3.9,0-6-2.5-6-7.5c0-1.4,0.3-3.2,0.4-4L104,46c-0.1,0.7-0.3,2.1-0.3,3.1c0,3.3,0.3,4.8,1.8,4.8
				c1.4,0,2.3-1.1,2.3-9.6c0-5.8-0.7-6.6-1.9-6.6c-1.3,0-1.9,1.5-2,4.6L100,42l1.6-17.3h10c0,0.8,0,1.2,0,1.9c0,0.8-0.1,1.4-0.2,2
				H105l-0.8,6.7c0.9-1.4,1.6-1.6,3-1.6c3.2,0,5.1,2.7,5.1,10.6C112.3,54.9,109.4,57.8,105.4,57.8z"/>
			<path class="st0" d="M118.2,57.4V31.5H113V29c1.9-0.2,3.4-0.8,4.8-1.7c1.4-0.9,2-1.9,2.5-2.9h2.3v32.9H118.2z"/>
			<path class="st0" d="M139.9,57.8c-4,0-6-2.8-6-7.5c0-2.1,0.1-3.4,0.4-4.7l4.1-0.2c-0.1,0.7-0.3,2.3-0.3,3.6c0,4.1,0.5,5.4,2,5.4
				c1.6,0,2.3-1,2.3-7c0-3.1-0.8-5.9-2.5-5.9h-3.4v-3.5h3.4c1.5,0,2-1.7,2-5c0-3.8-0.6-5.5-2-5.5c-1.6,0-1.8,2.3-1.8,3.9
				c0,1.1,0.1,2.6,0.2,3.3l-3.9-0.2c-0.1-0.6-0.3-1.4-0.3-3c0-4.2,2.1-7.2,6-7.2c4.3,0,6.2,2.6,6.2,9.2c0,3.6-0.9,5.6-3.1,5.9
				c2.3,0.2,3.9,3.2,3.9,8.6C146.9,55.6,144.2,57.8,139.9,57.8z"/>
			<path class="st0" d="M152.6,57.4V31.5h-5.2V29c1.9-0.2,3.4-0.8,4.8-1.7c1.4-0.9,2-1.9,2.5-2.9h2.3v32.9H152.6z"/>
			<path class="st0" d="M165.2,57.8c-4,0-6-2.8-6-7.5c0-2.1,0.1-3.4,0.4-4.7l4.1-0.2c-0.1,0.7-0.3,2.3-0.3,3.6c0,4.1,0.5,5.4,2,5.4
				c1.6,0,2.3-1,2.3-7c0-3.1-0.8-5.9-2.5-5.9h-3.4v-3.5h3.4c1.5,0,2-1.7,2-5c0-3.8-0.6-5.5-2-5.5c-1.6,0-1.8,2.3-1.8,3.9
				c0,1.1,0.1,2.6,0.2,3.3l-3.9-0.2c-0.1-0.6-0.3-1.4-0.3-3c0-4.2,2.1-7.2,6-7.2c4.3,0,6.2,2.6,6.2,9.2c0,3.6-0.9,5.6-3.1,5.9
				c2.3,0.2,3.9,3.2,3.9,8.6C172.2,55.6,169.5,57.8,165.2,57.8z"/>
			<path class="st0" d="M187.7,57.8c-4,0-6-2.8-6-7.5c0-2.1,0.1-3.4,0.4-4.7l4.1-0.2c-0.1,0.7-0.3,2.3-0.3,3.6c0,4.1,0.5,5.4,2,5.4
				c1.6,0,2.3-1,2.3-7c0-3.1-0.8-5.9-2.5-5.9h-3.4v-3.5h3.4c1.5,0,2-1.7,2-5c0-3.8-0.6-5.5-2-5.5c-1.6,0-1.8,2.3-1.8,3.9
				c0,1.1,0.1,2.6,0.2,3.3l-3.9-0.2c-0.1-0.6-0.3-1.4-0.3-3c0-4.2,2.1-7.2,6-7.2c4.3,0,6.2,2.6,6.2,9.2c0,3.6-0.9,5.6-3.1,5.9
				c2.3,0.2,3.9,3.2,3.9,8.6C194.7,55.6,192,57.8,187.7,57.8z"/>
			<path class="st0" d="M202.1,57.8c-4,0-6-2.8-6-7.5c0-2.1,0.1-3.4,0.4-4.7l4.1-0.2c-0.1,0.7-0.3,2.3-0.3,3.6c0,4.1,0.5,5.4,2,5.4
				c1.6,0,2.3-1,2.3-7c0-3.1-0.8-5.9-2.5-5.9h-3.4v-3.5h3.4c1.5,0,2-1.7,2-5c0-3.8-0.6-5.5-2-5.5c-1.6,0-1.8,2.3-1.8,3.9
				c0,1.1,0.1,2.6,0.2,3.3l-3.9-0.2c-0.1-0.6-0.3-1.4-0.3-3c0-4.2,2.1-7.2,6-7.2c4.3,0,6.2,2.6,6.2,9.2c0,3.6-0.9,5.6-3.1,5.9
				c2.3,0.2,3.9,3.2,3.9,8.6C209.1,55.6,206.4,57.8,202.1,57.8z"/>
			<path class="st0" d="M222,50.3v7.1h-4.1v-7.1h-7.5v-6l6.8-19.6h4.8v21.7h2.4v3.9H222z M213.5,46.4h4.5l0.1-13.8L213.5,46.4z"/>
		</g>
	</g>
	<g>
		<g>
			<path class="st0" d="M0,17.8V1.8h2.2V16h3.3v1.8H0z"/>
			<path class="st0" d="M10.3,17.8l-0.3-2.6H8.4l-0.2,2.6h-2l2-16.1h2.1l2.2,16.1H10.3z M9.3,5.8l-0.7,7.6h1.3L9.3,5.8z"/>
			<path class="st0" d="M16.6,3.6v14.2h-2.2V3.6h-2.2V1.8h6.5v1.7H16.6z"/>
			<path class="st0" d="M23.2,1.3l-0.9-0.6l-0.9,0.6h-1.6L21.2,0h2l1.5,1.3H23.2z M19.7,17.8V1.8h4.9v1.7h-2.8v5.3h2.5v1.7h-2.5v5.5
				H25v1.7H19.7z"/>
			<path class="st0" d="M29.8,3.6v14.2h-2.2V3.6h-2.2V1.8H32v1.7H29.8z"/>
			<path class="st0" d="M33,17.8V1.8h4.9v1.7h-2.8v5.3h2.5v1.7h-2.5v5.5h3.2v1.7H33z"/>
			<path class="st0" d="M42.7,17.8h-3.5V1.8h3c1,0,2,0.4,2.5,1.4c0.6,1.2,0.9,3.5,0.9,7.4C45.7,16.3,45.1,17.8,42.7,17.8z M42.1,3.4
				h-0.7v12.7h0.7c1,0,1.2-0.3,1.2-5.2C43.4,4.8,43.1,3.4,42.1,3.4z"/>
			<path class="st0" d="M50.4,17.8l-0.3-2.6h-1.7l-0.2,2.6h-2l2-16.1h2.1l2.2,16.1H50.4z M49.3,5.8l-0.7,7.6h1.3L49.3,5.8z"/>
			<path class="st0" d="M57.7,17.8c0,0-0.5-1.6-0.7-2.6c-0.7-2.8-1.6-7.1-1.7-7.3c0,0,0.1,4.2,0.1,6.8v3.1h-1.9V1.8h2
				c0,0,0.4,1.6,0.6,2.6c0.6,2.8,1.5,7.1,1.5,7.4c0-0.1-0.1-4.2-0.1-6.8V1.8h1.8v15.9H57.7z"/>
			<path class="st0" d="M63.8,18.1c-1.9,0-3-1-3-4.1c0-0.6,0.1-1.7,0.3-2.2l1.8-0.1c-0.1,0.6-0.1,1.5-0.1,2.2c0,2.3,0.4,2.6,1.1,2.6
				c0.4,0,1-0.2,1-2.4c0-2.4-0.5-3.2-1.8-3.8l-0.6-0.3c-1.5-0.8-1.9-2.3-1.9-4.2c0-2.7,1.1-4.1,3-4.1c1.9,0,2.9,1.2,2.9,3.6
				c0,0.6-0.1,1.1-0.2,1.7L64.5,7c0.1-0.4,0.1-1.2,0.1-1.7c0-1.6-0.4-2.2-1-2.2c-0.6,0-0.9,0.5-0.9,2c0,1.8,0.3,2.4,1.5,3l0.7,0.4
				c1.4,0.7,2.2,2.3,2.2,5.1C67,16.5,66,18.1,63.8,18.1z"/>
			<path class="st0" d="M68.1,17.8V1.8h2.2V16h3.3v1.8H68.1z"/>
			<path class="st0" d="M74.5,17.8V1.8h4.9v1.7h-2.8v5.3h2.5v1.7h-2.5v5.5h3.2v1.7H74.5z"/>
			<path class="st0" d="M83.6,18.1c-1.9,0-3-1-3-4.1c0-0.6,0.1-1.7,0.3-2.2l1.8-0.1c-0.1,0.6-0.1,1.5-0.1,2.2c0,2.3,0.4,2.6,1.1,2.6
				c0.4,0,1-0.2,1-2.4c0-2.4-0.5-3.2-1.8-3.8l-0.6-0.3c-1.5-0.8-1.9-2.3-1.9-4.2c0-2.7,1.1-4.1,3-4.1c1.9,0,2.9,1.2,2.9,3.6
				c0,0.6-0.1,1.1-0.2,1.7L84.4,7c0.1-0.4,0.1-1.2,0.1-1.7c0-1.6-0.4-2.2-1-2.2c-0.6,0-0.9,0.5-0.9,2c0,1.8,0.3,2.4,1.5,3l0.7,0.4
				c1.4,0.7,2.2,2.3,2.2,5.1C86.9,16.5,85.9,18.1,83.6,18.1z"/>
			<path class="st0" d="M90.9,18.1c-2.4,0-3.2-1.3-3.2-8.3c0-7,0.8-8.2,3.2-8.2s3.2,1.2,3.2,8.2C94.1,16.8,93.3,18.1,90.9,18.1z
				 M91.7,4.6c-0.1-1.2-0.2-1.5-0.9-1.5c-0.6,0-0.8,0.3-0.9,1.5C90,5.8,90,7.3,90,9.8c0,2.9,0,4,0.1,5.2c0.1,1.2,0.3,1.5,0.9,1.5
				c0.6,0,0.8-0.3,0.9-1.5c0.1-1.1,0.1-2.2,0.1-5.2C91.8,7.3,91.8,5.8,91.7,4.6z"/>
			<path class="st0" d="M95.3,17.8V1.8h2.2V16h3.3v1.8H95.3z"/>
			<path class="st0" d="M101.7,17.8V1.8h2.2v15.9H101.7z"/>
			<path class="st0" d="M109.2,17.9h-2l-2.3-16.1h2.1c0.2,1.6,0.6,4.6,1,7.5c0.2,1.5,0.4,3.8,0.4,3.8s0.2-2.3,0.4-3.8
				c0.4-2.9,0.6-5.9,0.8-7.5h2L109.2,17.9z"/>
			<path class="st0" d="M112.6,17.8V1.8h4.9v1.7h-2.8v5.3h2.5v1.7h-2.5v5.5h3.2v1.7H112.6z"/>
			<path class="st0" d="M121.7,18.1c-1.9,0-3-1-3-4.1c0-0.6,0.1-1.7,0.3-2.2l1.8-0.1c-0.1,0.6-0.1,1.5-0.1,2.2
				c0,2.3,0.4,2.6,1.1,2.6c0.4,0,1-0.2,1-2.4c0-2.4-0.5-3.2-1.8-3.8l-0.6-0.3c-1.5-0.8-1.9-2.3-1.9-4.2c0-2.7,1.1-4.1,3-4.1
				c1.9,0,2.9,1.2,2.9,3.6c0,0.6-0.1,1.1-0.2,1.7L122.4,7c0.1-0.4,0.1-1.2,0.1-1.7c0-1.6-0.4-2.2-1-2.2c-0.6,0-0.9,0.5-0.9,2
				c0,1.8,0.3,2.4,1.5,3l0.7,0.4c1.4,0.7,2.2,2.3,2.2,5.1C124.9,16.5,124,18.1,121.7,18.1z"/>
			<path class="st0" d="M136.1,14.2h-2.7v3.6h-7.1V1.8h10.1c4.1,0,6.4,2.4,6.4,6.2C142.8,11.8,140.2,14.2,136.1,14.2z M134.2,6.3
				h-0.8v3.6h0.7c1.5,0,2.3-0.4,2.3-1.8C136.4,6.8,135.7,6.3,134.2,6.3z"/>
			<path class="st0" d="M143.2,14.8c0-2.5,2.1-3,4.3-3.4c1.8-0.3,3-0.6,3.5-1.2c0-0.9-0.2-1.3-0.9-1.3c-0.5,0-0.8,0.3-0.8,0.9
				c0,0.1,0,0.3,0.1,0.5l-5.3,0.4c-0.1-0.2-0.2-0.7-0.2-1c0-2.6,2.3-3.9,6.7-3.9c4.9,0,6.7,1.4,6.7,4.3v3.5c0,0.6,0.2,0.9,0.9,0.9
				c0.2,0,0.6-0.1,0.7-0.2V17c-0.7,0.4-1.7,0.9-3.7,0.9c-1.9,0-3.1-0.9-3.5-2.1c-0.5,1.2-2,2.3-4.2,2.3
				C145.1,18.1,143.2,17,143.2,14.8z M150.9,14.1v-1.6c-0.2,0.2-0.4,0.3-0.7,0.5c-0.5,0.3-0.9,0.5-0.9,1.1c0,0.6,0.4,0.8,0.8,0.8
				C150.6,14.8,150.9,14.5,150.9,14.1z"/>
			<path class="st0" d="M172.8,11.9l-5.2,0.4c0,0,0.3-0.7,0.3-1.3c0-0.6-0.1-1.1-0.7-1.1c-1.2,0-1.1,1.5-1.1,3.3v4.7h-6.2V6.1h6.2
				c0,0,0,2,0,2.5c0.4-1.3,1.8-2.8,3.7-2.8c2.5,0,3.3,1.7,3.3,3.8C173.1,10.7,173,11.3,172.8,11.9z"/>
			<path class="st0" d="M174.1,5V1.8h6.2V5H174.1z M174.1,17.8V6.1h6.2v11.7H174.1z"/>
			<path class="st0" d="M188.5,18.1c-4.4,0-6.6-1.1-6.8-3.3c0-0.1,0-0.2,0-0.3l4.3-0.5c0.2,0.7,1.1,1.2,2.3,1.2
				c0.9,0,1.3-0.2,1.3-0.5c0-0.5-0.5-0.7-2.6-0.9c-4.1-0.5-5.2-1.7-5.1-4.1c0.1-1.8,1.5-3.8,6.7-3.8c3.9,0,5.8,1.5,6,3.1
				c0,0.1,0,0.3,0,0.3l-3.9,0.5c-0.2-0.5-0.9-1.1-2.1-1.1c-0.9,0-1.1,0.2-1.1,0.5c0,0.4,0.5,0.6,3,0.9c4.1,0.5,4.9,2.2,4.9,4.2
				C195.3,16.2,193.9,18.1,188.5,18.1z"/>
			<path class="st0" d="M199.8,17.8V8.1h-4.2V4.6c1.2,0,2.5-0.2,3.6-0.9c0.8-0.5,1.6-1.3,1.8-2h4.9v16.1H199.8z"/>
			<path class="st0" d="M221.9,15.6v2.2h-6v-2.2h-8.5v-4.4l8.8-9.3h5.7v9.7h2.3v4.1H221.9z M215.9,7.6l-3.8,3.9h3.8V7.6z"/>
		</g>
	</g>
</g>
</svg>
