<?xml version="1.0" encoding="utf-8"?>
<!-- Generator: Adobe Illustrator 21.0.2, SVG Export Plug-In . SVG Version: 6.00 Build 0)  -->
<svg version="1.1" id="Calque_1" xmlns="http://www.w3.org/2000/svg" xmlns:xlink="http://www.w3.org/1999/xlink" x="0px" y="0px"
	 viewBox="0 0 117.2 22.7" style="enable-background:new 0 0 117.2 22.7;" xml:space="preserve">
<style type="text/css">
	.st0{fill:#FFFFFF;}
</style>
<g>
	<g>
		<path class="st0" d="M3.8,22.7c-2.3,0-3.8-1.2-3.8-9.3C0,4.5,0.8,2,3.9,2c2.6,0,3.3,1.8,3.3,5c0,0.7-0.1,2.4-0.2,3.1l-2.2,0
			c0.1-1.1,0.1-2.3,0.1-2.9c0-2.3-0.2-3.2-1.1-3.2c-0.8,0-1.1,0.7-1.1,8.4c0,7.4,0.4,8,1.3,8c0.7,0,1-1,1-4c0-0.9,0-2.1-0.1-3.1
			l2.3,0.1c0.1,1.1,0.2,2,0.2,3.2C7.3,20.5,6.2,22.7,3.8,22.7z"/>
		<path class="st0" d="M8.6,22.3v-20h5.9v2.1h-3.4V11h3v2.2h-3v6.9H15v2.2H8.6z M11.6,1.6h-1.3L11.3,0h2.5L11.6,1.6z"/>
		<path class="st0" d="M20.4,22.3h-4.2v-20h3.6c1.2,0,2.4,0.5,3,1.7c0.7,1.5,1.1,4.4,1.1,9.3C23.9,20.4,23.2,22.3,20.4,22.3z
			 M19.6,4.3h-0.8v15.9h0.9c1.2,0,1.5-0.4,1.5-6.5C21.1,6.1,20.8,4.3,19.6,4.3z"/>
		<path class="st0" d="M30.4,22.3c-0.3-0.7-0.6-2.2-0.6-3.6v-3.2c0-2-0.5-2.6-1.1-2.6h-0.9v9.5h-2.6v-20h4.1c1.9,0,3.5,1.1,3.5,5.1
			c0,3.1-0.6,4.4-2.4,4.7c1.8,0.3,2,2.3,2,5.3c0,1.8,0.3,4.4,0.8,5H30.4z M28.8,4.1h-0.9v6.8h1.3c0.7,0,1-0.6,1-2.8
			C30.2,5.1,29.7,4.1,28.8,4.1z"/>
		<path class="st0" d="M34.4,22.3v-20H37v20H34.4z"/>
		<path class="st0" d="M42.2,22.7c-2.3,0-3.8-1.2-3.8-9.3C38.4,4.5,39.2,2,42.3,2c2.6,0,3.3,1.8,3.3,5c0,0.7-0.1,2.4-0.2,3.1l-2.2,0
			c0.1-1.1,0.1-2.3,0.1-2.9c0-2.3-0.2-3.2-1.1-3.2c-0.8,0-1.1,0.7-1.1,8.4c0,7.4,0.4,8,1.3,8c0.7,0,1-1,1-4c0-0.9,0-2.1-0.1-3.1
			l2.3,0.1c0.1,1.1,0.2,2,0.2,3.2C45.7,20.5,44.6,22.7,42.2,22.7z"/>
		<path class="st0" d="M55.3,22.7c-2.3,0-3.8-1.2-3.8-9.3C51.6,4.5,52.4,2,55.4,2c2.6,0,3.3,1.8,3.3,5c0,0.7-0.1,2.4-0.2,3.1l-2.2,0
			c0.1-1.1,0.1-2.3,0.1-2.9c0-2.3-0.2-3.2-1.1-3.2c-0.8,0-1.1,0.7-1.1,8.4c0,7.4,0.4,8,1.3,8c0.7,0,1-1,1-4c0-0.9,0-2.1-0.1-3.1
			l2.3,0.1c0.1,1.1,0.2,2,0.2,3.2C58.9,20.5,57.8,22.7,55.3,22.7z"/>
		<path class="st0" d="M64.6,22.3L64.2,19h-2.1l-0.3,3.2h-2.4L62,2.1h2.6l2.7,20.1H64.6z M63.2,7.3l-0.9,9.6H64L63.2,7.3z"/>
		<path class="st0" d="M71.7,22.7c-2.3,0-3.7-1.3-3.7-5.2c0-0.8,0.2-2.1,0.4-2.8l2.2-0.1c-0.1,0.8-0.1,1.9-0.1,2.8
			c0,2.8,0.5,3.3,1.3,3.3c0.5,0,1.3-0.2,1.3-3c0-3-0.6-4-2.2-4.8l-0.8-0.4c-1.8-1-2.3-2.9-2.3-5.3C67.8,3.7,69,2,71.4,2
			c2.3,0,3.5,1.5,3.5,4.5c0,0.7-0.1,1.4-0.2,2.1l-2.2,0.2c0.1-0.5,0.1-1.6,0.1-2.2c0-2-0.5-2.8-1.2-2.8c-0.7,0-1.1,0.6-1.1,2.5
			c0,2.2,0.4,3,1.8,3.8l0.9,0.5c1.7,0.9,2.6,2.8,2.6,6.4C75.6,20.7,74.4,22.7,71.7,22.7z"/>
		<path class="st0" d="M81.3,22.3L81,19h-2.1l-0.3,3.2h-2.4l2.5-20.1h2.6L84,22.3H81.3z M80,7.3l-0.9,9.6h1.6L80,7.3z"/>
		<path class="st0" d="M90.1,22.3c0,0-0.6-2-0.8-3.2c-0.8-3.5-2-8.9-2-9.2c0,0.1,0.2,5.2,0.2,8.5v3.9h-2.3v-20h2.4
			c0,0,0.5,2,0.8,3.2c0.8,3.5,1.8,8.9,1.9,9.2c0-0.1-0.2-5.2-0.2-8.5V2.3h2.2v20H90.1z"/>
		<path class="st0" d="M97.3,22.7c-2.9,0-3.8-1.6-3.8-10.4c0-8.8,1-10.3,3.8-10.3c2.8,0,3.8,1.6,3.8,10.3
			C101.2,21.1,100.2,22.7,97.3,22.7z M98.4,5.8c-0.1-1.5-0.3-1.9-1-1.9c-0.7,0-0.9,0.4-1,1.9c-0.1,1.4-0.1,3.4-0.1,6.5
			c0,3.6,0,5,0.1,6.4c0.1,1.5,0.4,1.9,1,1.9c0.7,0,0.9-0.4,1-1.9c0.1-1.4,0.1-2.8,0.1-6.4C98.5,9.2,98.5,7.2,98.4,5.8z"/>
		<path class="st0" d="M106.9,22.4h-2.4l-2.8-20.1h2.5c0.3,2,0.8,5.7,1.2,9.3c0.2,1.8,0.5,4.7,0.5,4.7s0.3-2.9,0.5-4.7
			c0.4-3.6,0.8-7.4,1-9.3h2.4L106.9,22.4z"/>
		<path class="st0" d="M114.5,22.3l-0.3-3.2h-2.1l-0.3,3.2h-2.4l2.5-20.1h2.6l2.7,20.1H114.5z M113.2,7.3l-0.9,9.6h1.6L113.2,7.3z"
			/>
	</g>
</g>
</svg>
